# xmcd
#
# Track frame offsets:
#	150
#	17240
#	34498
#
# Disc length: 756 seconds
#
# Revision: 0
# Processed by: cddbd v1.5.1PL0 Copyright (c) Steve Scherf et al.
# Submitted via: audiograbber 1.83.01
#
DISCID=2102f203
DTITLE=Gyle Waddy - Sexy Eyes
DYEAR=2004
DGENRE=Vocal
TTITLE0=Sexy Eyes (Radio Edit)
TTITLE1=Naked In Love (Radio Edit
TTITLE2=It's Time (Radio Edit)
EXTD=
EXTT0=
EXTT1=
EXTT2=
PLAYORDER=
